<svg width="28" height="28" viewBox="0 0 28 28" fill="none" xmlns="http://www.w3.org/2000/svg">
<mask id="mask0_100_3425" style="mask-type:alpha" maskUnits="userSpaceOnUse" x="0" y="0" width="28" height="28">
<rect width="28" height="28" fill="#D9D9D9"/>
</mask>
<g mask="url(#mask0_100_3425)">
<path d="M6.82504 19.95C7.81671 19.1916 8.92504 18.5937 10.15 18.1562C11.375 17.7187 12.6584 17.5 14 17.5C15.3417 17.5 16.625 17.7187 17.85 18.1562C19.075 18.5937 20.1834 19.1916 21.175 19.95C21.8556 19.1528 22.3855 18.2486 22.7646 17.2375C23.1438 16.2264 23.3334 15.1472 23.3334 14C23.3334 11.4139 22.4243 9.21179 20.6063 7.39373C18.7882 5.57567 16.5862 4.66665 14 4.66665C11.4139 4.66665 9.21185 5.57567 7.39379 7.39373C5.57574 9.21179 4.66671 11.4139 4.66671 14C4.66671 15.1472 4.85629 16.2264 5.23546 17.2375C5.61462 18.2486 6.14449 19.1528 6.82504 19.95ZM14 15.1666C12.8528 15.1666 11.8855 14.7729 11.098 13.9854C10.3105 13.1979 9.91671 12.2305 9.91671 11.0833C9.91671 9.93609 10.3105 8.96873 11.098 8.18123C11.8855 7.39373 12.8528 6.99998 14 6.99998C15.1473 6.99998 16.1146 7.39373 16.9021 8.18123C17.6896 8.96873 18.0834 9.93609 18.0834 11.0833C18.0834 12.2305 17.6896 13.1979 16.9021 13.9854C16.1146 14.7729 15.1473 15.1666 14 15.1666ZM14 25.6666C12.3862 25.6666 10.8695 25.3604 9.45004 24.7479C8.0306 24.1354 6.79587 23.3041 5.74587 22.2541C4.69587 21.2041 3.86462 19.9694 3.25212 18.55C2.63962 17.1305 2.33337 15.6139 2.33337 14C2.33337 12.3861 2.63962 10.8694 3.25212 9.44998C3.86462 8.03054 4.69587 6.79581 5.74587 5.74581C6.79587 4.69581 8.0306 3.86456 9.45004 3.25206C10.8695 2.63956 12.3862 2.33331 14 2.33331C15.6139 2.33331 17.1306 2.63956 18.55 3.25206C19.9695 3.86456 21.2042 4.69581 22.2542 5.74581C23.3042 6.79581 24.1355 8.03054 24.748 9.44998C25.3605 10.8694 25.6667 12.3861 25.6667 14C25.6667 15.6139 25.3605 17.1305 24.748 18.55C24.1355 19.9694 23.3042 21.2041 22.2542 22.2541C21.2042 23.3041 19.9695 24.1354 18.55 24.7479C17.1306 25.3604 15.6139 25.6666 14 25.6666ZM14 23.3333C15.0306 23.3333 16.0028 23.1826 16.9167 22.8812C17.8306 22.5798 18.6667 22.1472 19.425 21.5833C18.6667 21.0194 17.8306 20.5868 16.9167 20.2854C16.0028 19.984 15.0306 19.8333 14 19.8333C12.9695 19.8333 11.9973 19.984 11.0834 20.2854C10.1695 20.5868 9.33337 21.0194 8.57504 21.5833C9.33337 22.1472 10.1695 22.5798 11.0834 22.8812C11.9973 23.1826 12.9695 23.3333 14 23.3333ZM14 12.8333C14.5056 12.8333 14.9237 12.668 15.2542 12.3375C15.5848 12.0069 15.75 11.5889 15.75 11.0833C15.75 10.5778 15.5848 10.1597 15.2542 9.82915C14.9237 9.49859 14.5056 9.33331 14 9.33331C13.4945 9.33331 13.0764 9.49859 12.7459 9.82915C12.4153 10.1597 12.25 10.5778 12.25 11.0833C12.25 11.5889 12.4153 12.0069 12.7459 12.3375C13.0764 12.668 13.4945 12.8333 14 12.8333Z" fill="#8E8E93"/>
</g>
</svg>
