<svg width="64" height="32" viewBox="0 0 64 32" fill="none" xmlns="http://www.w3.org/2000/svg">
<rect x="18.48" width="5.12" height="32" rx="2.56" fill="white"/>
<rect x="24.8799" width="5.12" height="32" rx="2.56" fill="white"/>
<rect x="0.560059" y="11.52" width="7.68" height="5.12" rx="2.56" fill="white"/>
<rect x="0.560059" y="2.56006" width="15.36" height="5.12" rx="2.56" fill="white"/>
<rect x="12.0801" y="11.52" width="11.52" height="5.12" rx="2.56" fill="white"/>
<path fill-rule="evenodd" clip-rule="evenodd" d="M13.3601 2.56006C11.9462 2.56006 10.8001 3.70621 10.8001 5.12006V11.5201C10.8001 12.8648 10.5352 14.1964 10.0206 15.4387C9.50598 16.6811 8.7517 17.81 7.80083 18.7608C6.84996 19.7117 5.72111 20.466 4.47874 20.9806C4.02754 21.1675 3.56457 21.3214 3.09349 21.4417C1.72359 21.7915 0.560059 22.9062 0.560059 24.3201C0.560059 25.7339 1.71398 26.9018 3.10824 26.6672C4.24802 26.4755 5.36522 26.1552 6.43808 25.7108C8.30164 24.9389 9.99491 23.8075 11.4212 22.3812C12.8475 20.9549 13.9789 19.2616 14.7508 17.3981C15.5228 15.5345 15.9201 13.5372 15.9201 11.5201V5.12006C15.9201 3.70621 14.7739 2.56006 13.3601 2.56006Z" fill="white"/>
<g clip-path="url(#clip0_110_304)">
<rect x="58.8799" y="0.640015" width="5.12" height="15.36" rx="2.56" fill="white"/>
<rect x="40.96" width="5.12" height="7.68" rx="2.56" fill="white"/>
<rect x="53.76" y="6.40002" width="10.24" height="5.12" rx="2.56" fill="white"/>
<rect x="33.28" y="2.56006" width="20.48" height="5.12" rx="2.56" fill="white"/>
<path fill-rule="evenodd" clip-rule="evenodd" d="M40.3141 6.14395C40.4429 5.80203 40.5531 5.45131 40.6441 5.09385C40.9929 3.72371 42.1062 2.56006 43.52 2.56006C44.9339 2.56006 46.1019 3.71393 45.8686 5.1084C45.7062 6.07956 45.4509 7.03156 45.1057 7.94824C44.4624 9.65654 43.5196 11.2087 42.331 12.5161C41.1424 13.8236 39.7313 14.8607 38.1784 15.5683C37.4153 15.916 36.6252 16.1808 35.8195 16.3602C34.4395 16.6675 33.28 15.4939 33.28 14.0801C33.28 12.6662 34.4656 11.559 35.7764 11.0291C35.8699 10.9913 35.9629 10.9513 36.0555 10.9091C36.9542 10.4996 37.8041 9.88426 38.5425 9.07204C39.2818 8.25878 39.891 7.26753 40.3141 6.14395Z" fill="white"/>
<path fill-rule="evenodd" clip-rule="evenodd" d="M41.9343 7.94824C41.5891 7.03156 41.3338 6.07956 41.1714 5.1084C40.9381 3.71393 42.1061 2.56006 43.52 2.56006C44.9338 2.56006 46.0471 3.72371 46.3959 5.09385C46.4869 5.45131 46.5971 5.80203 46.7258 6.14395C47.1489 7.26753 47.7582 8.25878 48.4975 9.07204C49.2359 9.88426 50.0858 10.4996 50.9845 10.9091C51.0771 10.9513 51.1701 10.9913 51.2636 11.0291C52.5744 11.559 53.76 12.6662 53.76 14.0801C53.76 15.4939 52.6005 16.6675 51.2204 16.3602C50.4148 16.1808 49.6247 15.916 48.8616 15.5683C47.3087 14.8607 45.8976 13.8236 44.709 12.5161C43.5204 11.2087 42.5776 9.65654 41.9343 7.94824Z" fill="white"/>
<path fill-rule="evenodd" clip-rule="evenodd" d="M38.3999 19.2C38.3999 17.7862 39.5461 16.64 40.9599 16.64C42.3738 16.64 43.5199 17.7862 43.5199 19.2V24.32V25.6V25.88C43.5199 26.4323 43.9676 26.88 44.5199 26.88H57.8799C58.4322 26.88 58.8799 26.4323 58.8799 25.88V25.6V24.32V19.2C58.8799 17.7862 60.0261 16.64 61.4399 16.64C62.8538 16.64 63.9999 17.7862 63.9999 19.2V21.7569L63.9999 21.76L63.9999 21.7632V28.7965L63.9999 28.8L63.9999 28.8035V29.44C63.9999 30.8539 62.8538 32 61.4399 32C61.3377 32 61.2369 31.994 61.1378 31.9824C61.0268 31.994 60.914 32 60.7999 32H41.5999C41.4858 32 41.373 31.994 41.262 31.9824C41.1629 31.994 41.0621 32 40.9599 32C39.5461 32 38.3999 30.8539 38.3999 29.44V28.8V21.76V19.2Z" fill="white"/>
<rect x="40.96" y="19.2" width="20.48" height="5.12" rx="2.56" fill="white"/>
</g>
<defs>
<clipPath id="clip0_110_304">
<rect width="32" height="32" fill="white" transform="translate(32)"/>
</clipPath>
</defs>
</svg>
