<svg width="50" height="26" viewBox="0 0 50 26" fill="none" xmlns="http://www.w3.org/2000/svg">
<g clip-path="url(#clip0_110_1888)">
<rect x="14.4375" y="0.5" width="4" height="25" rx="2" fill="#FF3B30"/>
<rect x="19.4375" y="0.5" width="4" height="25" rx="2" fill="#FF3B30"/>
<rect x="0.4375" y="9.5" width="6" height="4" rx="2" fill="#FF3B30"/>
<rect x="0.4375" y="2.50006" width="12" height="4" rx="2" fill="#FF3B30"/>
<rect x="9.4375" y="9.5" width="9" height="4" rx="2" fill="#FF3B30"/>
<path fill-rule="evenodd" clip-rule="evenodd" d="M10.4375 2.50006C9.33293 2.50006 8.4375 3.39549 8.4375 4.50006V9.50006C8.4375 10.5506 8.23057 11.5909 7.82854 12.5615C7.4265 13.5321 6.83722 14.414 6.09436 15.1569C5.35149 15.8998 4.46957 16.4891 3.49897 16.8911C3.14647 17.0371 2.78478 17.1574 2.41674 17.2514C1.34651 17.5246 0.4375 18.3955 0.4375 19.5001C0.4375 20.6046 1.339 21.517 2.42827 21.3338C3.31872 21.184 4.19153 20.9338 5.0297 20.5866C6.48561 19.9836 7.80848 19.0996 8.92278 17.9853C10.0371 16.871 10.921 15.5482 11.5241 14.0923C12.1271 12.6364 12.4375 11.0759 12.4375 9.50006V4.50006C12.4375 3.39549 11.5421 2.50006 10.4375 2.50006Z" fill="#FF3B30"/>
</g>
<g clip-path="url(#clip1_110_1888)">
<rect x="46" y="1" width="4" height="12" rx="2" fill="#FF3B30"/>
<rect x="32" y="0.5" width="4" height="6" rx="2" fill="#FF3B30"/>
<rect x="42" y="5.5" width="8" height="4" rx="2" fill="#FF3B30"/>
<rect x="26" y="2.5" width="16" height="4" rx="2" fill="#FF3B30"/>
<path fill-rule="evenodd" clip-rule="evenodd" d="M31.4954 5.29991C31.596 5.03279 31.6821 4.75879 31.7532 4.47952C32.0257 3.4091 32.8954 2.5 34 2.5C35.1046 2.5 36.0171 3.40146 35.8348 4.49089C35.7079 5.24961 35.5085 5.99336 35.2388 6.70952C34.7362 8.04412 33.9996 9.25675 33.0711 10.2782C32.1425 11.2996 31.0401 12.1099 29.8268 12.6627C29.2306 12.9343 28.6134 13.1412 27.984 13.2813C26.9058 13.5214 26 12.6046 26 11.5C26 10.3954 26.9263 9.5304 27.9503 9.11641C28.0233 9.08689 28.096 9.05566 28.1683 9.0227C28.8704 8.7028 29.5344 8.22203 30.1113 7.58748C30.6889 6.95213 31.1649 6.17771 31.4954 5.29991Z" fill="#FF3B30"/>
<path fill-rule="evenodd" clip-rule="evenodd" d="M32.7612 6.70952C32.4915 5.99336 32.2921 5.24961 32.1652 4.49089C31.9829 3.40146 32.8954 2.5 34 2.5C35.1046 2.5 35.9743 3.4091 36.2468 4.47952C36.3179 4.75879 36.404 5.03279 36.5046 5.29991C36.8351 6.17771 37.3111 6.95213 37.8887 7.58748C38.4656 8.22203 39.1296 8.7028 39.8317 9.0227C39.904 9.05566 39.9767 9.08689 40.0497 9.11641C41.0737 9.5304 42 10.3954 42 11.5C42 12.6046 41.0942 13.5214 40.016 13.2813C39.3866 13.1412 38.7694 12.9343 38.1732 12.6627C36.9599 12.1099 35.8575 11.2996 34.9289 10.2782C34.0004 9.25675 33.2638 8.04412 32.7612 6.70952Z" fill="#FF3B30"/>
<path fill-rule="evenodd" clip-rule="evenodd" d="M30 15.5C30 14.3954 30.8954 13.5 32 13.5C33.1046 13.5 34 14.3954 34 15.5V19.5V20.5C34 21.0523 34.4477 21.5 35 21.5H45C45.5523 21.5 46 21.0523 46 20.5V19.5V15.5C46 15.4993 46 15.4987 46 15.498C46.0011 14.3944 46.8961 13.5 48 13.5C49.1046 13.5 50 14.3954 50 15.5V17.5V23V23.5C50 24.6046 49.1046 25.5 48 25.5C47.9202 25.5 47.8414 25.4953 47.764 25.4862C47.6773 25.4953 47.5892 25.5 47.5 25.5H32.5C32.4108 25.5 32.3227 25.4953 32.236 25.4862C32.1586 25.4953 32.0798 25.5 32 25.5C30.8954 25.5 30 24.6046 30 23.5V23V17.5V15.5Z" fill="#FF3B30"/>
<rect x="32" y="15.5" width="16" height="4" rx="2" fill="#FF3B30"/>
</g>
<defs>
<clipPath id="clip0_110_1888">
<rect width="25" height="25" fill="white" transform="translate(0 0.5)"/>
</clipPath>
<clipPath id="clip1_110_1888">
<rect width="25" height="25" fill="white" transform="translate(25 0.5)"/>
</clipPath>
</defs>
</svg>
